<svg id="Capa_1" enable-background="new 0 0 497 497" height="512" viewBox="0 0 497 497" width="512" xmlns="http://www.w3.org/2000/svg"><g><path d="m453.325 44.77h-121.995l-82.83 203.73 82.83 203.73h121.995c24.121 0 43.675-19.554 43.675-43.675v-320.11c0-24.121-19.554-43.675-43.675-43.675z" fill="#ff6f7f"/><path d="m165.67 44.77h-121.995c-24.121 0-43.675 19.554-43.675 43.675v320.11c0 24.121 19.554 43.675 43.675 43.675h121.995l82.83-203.73z" fill="#5c84d9"/><path d="m165.67 44.77h165.66v407.46h-165.66z" fill="#eaeaea"/><g><g><path d="m124.25 260.831c-4.142 0-7.5-3.358-7.5-7.5v-21.876c0-4.142 3.358-7.5 7.5-7.5s7.5 3.358 7.5 7.5v21.876c0 4.143-3.358 7.5-7.5 7.5z" fill="#423e4f"/></g><g><path d="m372.75 260.831c-4.142 0-7.5-3.358-7.5-7.5v-21.876c0-4.142 3.358-7.5 7.5-7.5s7.5 3.358 7.5 7.5v21.876c0 4.143-3.358 7.5-7.5 7.5z" fill="#423e4f"/></g><g><path d="m248.5 274.47c-13.756 0-26.838-5.959-35.893-16.348-2.721-3.123-2.396-7.86.727-10.582 3.123-2.721 7.86-2.396 10.582.727 6.205 7.12 15.166 11.203 24.584 11.203s18.379-4.083 24.584-11.203c2.721-3.123 7.458-3.448 10.582-.727 3.123 2.721 3.448 7.459.727 10.582-9.055 10.39-22.137 16.348-35.893 16.348z" fill="#423e4f"/></g></g><path d="m47.14 237.602c0-74.68 4.414-142.545 38.244-192.832h-41.709c-24.121 0-43.675 19.554-43.675 43.675v320.11c0 24.121 19.554 43.675 43.675 43.675h103.292c-61.04-51.486-99.827-128.522-99.827-214.628z" fill="#4677d4"/></g></svg>