<svg id="Capa_1" enable-background="new 0 0 497 497" height="512" viewBox="0 0 497 497" width="512" xmlns="http://www.w3.org/2000/svg"><path d="m0 315.52v91.544c0 23.475 19.03 42.506 42.506 42.506h411.989c23.475 0 42.506-19.03 42.506-42.506v-91.544l-248.5-29.973z" fill="#f8d070"/><path d="m40 407.065v-91.545l228.5-27.56-20-2.413-248.5 29.973v91.545c0 23.475 19.03 42.505 42.506 42.505h40c-23.476 0-42.506-19.03-42.506-42.505z" fill="#ffa83f"/><path d="m454.494 47.43h-411.988c-23.476 0-42.506 19.03-42.506 42.506v91.544l248.5 38.009 248.5-38.009v-91.544c0-23.476-19.03-42.506-42.506-42.506z" fill="#4f4c5f"/><path d="m40 181.48v-91.544c0-23.476 19.03-42.506 42.506-42.506h-40c-23.476 0-42.506 19.03-42.506 42.506v91.544l248.5 38.009 20-3.059z" fill="#423e4f"/><path d="m0 181.48h497v134.04h-497z" fill="#fd5f7e"/><path d="m0 181.48h40v134.04h-40z" fill="#e3254c"/><g fill="#423e4f"><path d="m155.556 259.614c-4.142 0-7.5-3.358-7.5-7.5v-17.86c0-4.142 3.358-7.5 7.5-7.5s7.5 3.358 7.5 7.5v17.86c0 4.142-3.358 7.5-7.5 7.5z"/><path d="m341.445 259.614c-4.142 0-7.5-3.358-7.5-7.5v-17.86c0-4.142 3.358-7.5 7.5-7.5s7.5 3.358 7.5 7.5v17.86c0 4.142-3.358 7.5-7.5 7.5z"/><path d="m248.5 270.246c-11.559 0-22.551-5.007-30.158-13.736-2.721-3.123-2.396-7.86.727-10.582 3.123-2.721 7.859-2.396 10.582.727 4.758 5.46 11.628 8.591 18.85 8.591s14.092-3.131 18.85-8.591c2.721-3.123 7.459-3.448 10.582-.727s3.448 7.459.727 10.582c-7.609 8.729-18.601 13.736-30.16 13.736z"/></g></svg>